<?xml version="1.0" ?><svg style="enable-background:new 0 0 48 48;" version="1.1" viewBox="0 0 48 48" xml:space="preserve" xmlns="http://www.w3.org/2000/svg" xmlns:xlink="http://www.w3.org/1999/xlink"><style type="text/css">
	.st0{display:none;}
	.st1{fill:none;stroke:#303030;stroke-width:0.7;stroke-linecap:round;stroke-linejoin:round;stroke-miterlimit:10;}
	.st2{fill:#303030;}
</style><g class="st0" id="Padding__x26__Artboard"/><g id="Icons"><g><g><circle class="st1" cx="24" cy="18.21032" r="4.66"/><circle class="st2" cx="30.15608" cy="12.25521" r="0.6697"/><g><path class="st1" d="M28.63412,28.01401h-9.26867c-2.85009,0-5.16915-2.31906-5.16915-5.16957v-9.26825      c0-2.85051,2.31906-5.16957,5.16915-5.16957h9.26867c2.85051,0,5.16957,2.31906,5.16957,5.16957v9.26825      C33.80369,25.69495,31.48463,28.01401,28.63412,28.01401z"/></g><line class="st1" x1="15.9747" x2="15.9747" y1="14.93179" y2="18.21032"/><line class="st1" x1="15.9747" x2="15.9747" y1="19.56256" y2="20.54659"/></g><g><path class="st2" d="M35.95232,36.36c-0.01551-0.03099-0.0465-0.06973-0.07754-0.06973     c-0.03099,0-0.06974,0.03099-0.09301,0.06197c-0.02323,0.04651-0.03099,0.10077-0.04651,0.15504     c-0.03875,0.10853-0.05426,0.22477-0.10848,0.32553c-0.0388,0.06978-0.12405,0.14727-0.20154,0.16279     c-0.10077,0.02328-0.17055-0.06978-0.20154-0.16279c-0.04651-0.124-0.09301-0.25576-0.09301-0.38756     c-0.01551-0.5038-0.01551-1.01541-0.00776-1.52697c0-0.27903-0.03099-0.34881-0.28679-0.45734     c-0.05426-0.02323-0.11629-0.0465-0.17826-0.06197c-0.18607-0.05426-0.27908-0.00776-0.35658,0.1705     c-0.18602,0.45734-0.34105,0.93791-0.41854,1.42624c-0.00776,0.01547-0.01552,0.03099-0.02328,0.0465     c-0.01552,0-0.02323,0-0.03099-0.00776c-0.01552-0.3798-0.03875-0.76736-0.0465-1.15492     c-0.00776-0.29455-0.12405-0.44182-0.4186-0.48833c-0.18602-0.03875-0.26351-0.00776-0.34105,0.16274     c-0.10077,0.23257-0.17826,0.4651-0.26352,0.69763c-0.03875,0.10077-0.06978,0.2093-0.10853,0.31007     c-0.03099-0.24804-0.02323-0.48833-0.03099-0.73637c0-0.37209,0.06198-0.35657-0.39532-0.43406     c-0.15503-0.03104-0.19378,0.00776-0.19378,0.1705c-0.00776,0.55035-0.00776,1.09295-0.02327,1.64325     c0,0.26356-0.10077,0.50385-0.26352,0.71315c-0.13952,0.17826-0.3333,0.14727-0.40308-0.07754     c-0.03099-0.09301-0.05426-0.19378-0.05426-0.28679c-0.00776-0.5891,0-1.18591,0-1.77501     c0-0.24028-0.02323-0.27903-0.26351-0.33329c-0.06202-0.01552-0.13181-0.02328-0.19378-0.02328     c-0.0853,0-0.14727,0.03875-0.14727,0.13176c-0.00776,0.03104-0.01552,0.05426-0.02328,0.09301     c-0.03099-0.03099-0.04651-0.05421-0.06202-0.06973c-0.31778-0.34105-0.78283-0.35657-1.08514,0.00776     c-0.13176,0.15503-0.24028,0.34881-0.31783,0.54259c-0.16274,0.44178-0.1705,0.89912-0.10077,1.36417     c0.02328,0.17055-0.03099,0.31007-0.13176,0.43406c-0.124,0.14727-0.30231,0.13956-0.39532-0.02323     c-0.06198-0.10077-0.10077-0.21706-0.124-0.3333c-0.06202-0.35657-0.03099-0.70538,0.03875-1.05415     c0.03875-0.19378,0.08525-0.38756,0.10853-0.5891c0.02323-0.19378-0.09301-0.31783-0.29455-0.31783     c-0.09301,0-0.19378,0.02328-0.29455,0.03875c-0.14728,0.02328-0.29455,0.05426-0.44958,0.07754     c0.00776-0.07754,0.01552-0.12405,0.01552-0.17055c0.00776-0.20149-0.11629-0.31778-0.31007-0.30226     c-0.18602,0.00771-0.31002,0.10077-0.3798,0.27127c-0.06973,0.17826-0.08525,0.35657,0.06202,0.49609     c0.06978,0.06974,0.07749,0.124,0.05426,0.20925c-0.13952,0.48062-0.35657,0.92239-0.6356,1.33323     c-0.01552,0.01551-0.03099,0.03099-0.06202,0.05426v-0.09301c0.00776-0.60461,0.01552-1.20918,0.01552-1.80604     c0-0.05426,0-0.13951-0.03099-0.16279c-0.13181-0.10848-0.29455-0.14727-0.45734-0.11624     c-0.06202,0.01547-0.10853,0.11624-0.1705,0.17826c-0.00776-0.01552-0.03879-0.0465-0.06978-0.07749     c-0.26356-0.26356-0.65112-0.30231-0.93791-0.06202c-0.124,0.10853-0.23253,0.24804-0.31002,0.39532     c-0.2558,0.47281-0.29455,0.99213-0.24029,1.51921c0.02323,0.19378-0.03103,0.34881-0.1318,0.50385     c-0.05422,0.07749-0.124,0.14727-0.23253,0.13176c-0.11624-0.01547-0.17826-0.09301-0.20154-0.19378     c-0.03099-0.13951-0.06973-0.28679-0.06973-0.42631c-0.00776-0.55806,0.00776-1.11617,0.01547-1.67424     c0-0.17055-0.02323-0.21706-0.19378-0.26356c-0.0465-0.01552-0.10072-0.03099-0.14723-0.03099     c-0.06978,0-0.15503-0.01552-0.2093,0.02323c-0.0465,0.02328-0.06202,0.10853-0.07754,0.13951     c-0.13952-0.08525-0.27903-0.20149-0.44178-0.25575c-0.31007-0.0853-0.56587,0.03875-0.75965,0.27903     c-0.31778,0.38756-0.39532,0.85261-0.41079,1.33318c-0.00776,0.29455-0.10853,0.54259-0.27908,0.77512     c-0.0465,0.06202-0.10848,0.11629-0.1705,0.16279c-0.11629,0.07749-0.21706,0.05426-0.27127-0.06973     c-0.05426-0.12405-0.10077-0.25581-0.10077-0.38756c0-0.69763,0.01547-1.40301,0.02323-2.10059     c0-0.07754,0.03875-0.09301,0.10077-0.09301c0.19378,0,0.38756,0,0.57358-0.00776c0.19378,0,0.26356-0.0775,0.27132-0.27127     c0-0.07754-0.03103-0.12405-0.11629-0.12405c-0.15503-0.00776-0.31007-0.01552-0.47281-0.03099     c-0.10853-0.00776-0.21706-0.01552-0.32554-0.02328c0-0.13176-0.00776-0.24804,0-0.36428     c0-0.11629,0.01547-0.23252,0.01547-0.34881c-0.00776-0.0465-0.03875-0.124-0.06973-0.13176     c-0.14727-0.05426-0.30231-0.09301-0.45734-0.12405c-0.08525-0.02323-0.13952,0.03104-0.14728,0.12405     c-0.00776,0.10848-0.01552,0.21701-0.02323,0.32553v0.50385c-0.20154-0.00776-0.36433-0.01552-0.53484-0.02328     c-0.16279-0.00776-0.19378,0.00776-0.24028,0.17826c-0.01552,0.0388-0.01552,0.0853-0.02328,0.13181     c-0.01552,0.10848,0.02328,0.16275,0.14728,0.15499c0.19378-0.00771,0.39532,0,0.60462,0v0.17055     c-0.00776,0.3798-0.01552,0.7596-0.00776,1.13169c0.00776,0.41079-0.17055,0.74408-0.43406,1.03088     c-0.01552,0.01552-0.03875,0.03103-0.06978,0.0465c0.02328-0.35653-0.0465-0.55806-0.28679-0.78288     c-0.07749-0.06974-0.16279-0.13951-0.24804-0.20149c-0.15504-0.11629-0.30231-0.23257-0.45729-0.34881     c0.02323-0.03875,0.05426-0.06978,0.06973-0.10077c0.08525-0.15503,0.17831-0.30231,0.23252-0.46505     c0.07754-0.22482-0.02323-0.35657-0.25575-0.37209c-0.26356-0.01547-0.4651,0.11629-0.59686,0.34105     c-0.13176,0.21706-0.15503,0.44183,0,0.66659c0.03875,0.05426,0.07749,0.09301,0.03099,0.16279     c-0.20149,0.34106-0.39527,0.68211-0.58905,1.02316c-0.03879,0.06974-0.0853,0.13176-0.13956,0.17826     c-0.0465,0.0465-0.124,0.06978-0.18602,0.10853c-0.02323-0.06202-0.06973-0.124-0.07749-0.18602     c-0.02328-0.10853-0.03103-0.21706-0.02328-0.31783c0.00776-0.46505,0.02328-0.92239,0.03103-1.38745     c0-0.09301-0.00776-0.21701-0.06978-0.27903c-0.31002-0.30231-0.60457-0.35657-0.91463-0.05426     c-0.06978,0.06973-0.13952,0.14727-0.17826,0.23252c-0.11629,0.22477-0.22482,0.44958-0.32558,0.67435     c-0.05422,0.13952-0.10077,0.27903-0.14727,0.41859c-0.03099-0.0465-0.03099-0.09306-0.03099-0.1318     c0-0.3333,0-0.66659,0.00776-0.99989c0-0.28679-0.01552-0.30231-0.29455-0.37204     c-0.03875-0.00776-0.07749-0.01552-0.11629-0.01552c-0.13176-0.01552-0.16275,0.00776-0.16275,0.14727v0.73637     c0,0.58134-0.01552,1.17044,0,1.75178c0.00776,0.34877,0.16275,0.39527,0.47281,0.37204     c0.07749,0,0.11629-0.03875,0.13176-0.13176c0.06978-0.31783,0.1318-0.64336,0.22481-0.95343     c0.13176-0.47281,0.31778-0.92239,0.62785-1.30219c0.03875-0.0465,0.08525-0.08525,0.124-0.124     c0.03099,0.0465,0.03099,0.08525,0.03099,0.124c-0.01547,0.40308-0.0465,0.80611-0.0465,1.20918     c0.00776,0.29455,0.03103,0.59686,0.09306,0.88365c0.06198,0.29455,0.32554,0.38756,0.58134,0.23253     c0.15499-0.09301,0.30226-0.21701,0.40303-0.35658c0.19378-0.26351,0.35657-0.54255,0.53483-0.82162     c0.10077-0.16274,0.19378-0.32553,0.31007-0.52707c0.18602,0.20154,0.37204,0.3798,0.52708,0.57358     c0.124,0.14728,0.16279,0.33334,0.10077,0.52713c-0.06978,0.19378-0.24029,0.27903-0.42631,0.19378     c-0.07754-0.03104-0.15504-0.0853-0.22482-0.13181c-0.1705-0.11624-0.24029-0.10848-0.35653,0.06202     c-0.03879,0.0465-0.06202,0.10853-0.0853,0.16279c-0.03099,0.09301-0.00771,0.16275,0.07754,0.21701     c0.0465,0.02327,0.09301,0.05426,0.14728,0.06978c0.58134,0.20925,1.21694,0.14728,1.65101-0.43406     c0.124-0.17055,0.22477-0.35657,0.34877-0.55035c0.00776,0.05426,0.01552,0.10077,0.01552,0.13952     c0.03875,0.24028,0.09301,0.4651,0.23253,0.66659c0.18602,0.26356,0.59686,0.43406,0.92239,0.07754     c0.11629-0.12405,0.19378-0.28679,0.29455-0.4263c0.02328-0.0388,0.03875-0.0853,0.06978-0.14728     c0.124,0.40303,0.31002,0.73633,0.75184,0.76736c0.43406,0.03099,0.71314-0.22482,0.93015-0.5891     c0.06978,0.34105,0.24804,0.55035,0.58134,0.5891c0.34105,0.03099,0.53483-0.18602,0.68211-0.48057     c0.16279,0.30231,0.38756,0.49609,0.72861,0.48833c0.32554-0.01551,0.56582-0.19378,0.7596-0.44958     c0.03875,0.27127,0.03875,0.26356-0.14727,0.43407c-0.27127,0.26356-0.55031,0.51931-0.80611,0.79839     c-0.10853,0.124-0.20154,0.27903-0.26356,0.43407c-0.16274,0.41855,0.0465,0.80611,0.48057,0.93787     c0.44958,0.13176,0.91468-0.06974,1.11617-0.5038c0.0853-0.18607,0.15503-0.39532,0.17055-0.60462     c0.03099-0.40308,0.02323-0.81387,0.03875-1.21694c0-0.0775,0.03099-0.15504,0.06978-0.21701     c0.40303-0.48057,0.73633-1.00769,0.94562-1.59674c0.10077-0.27132,0.22477-0.37209,0.49609-0.3333     c0.10077,0.00771,0.13951,0.01547,0.10853,0.13176c-0.09301,0.39532-0.13952,0.79835-0.10077,1.20918     c0.02323,0.24805,0.07749,0.48833,0.24028,0.68211c0.32554,0.41079,0.82163,0.3798,1.10066-0.06202     c0.01552-0.03099,0.03875-0.05426,0.06202-0.09301c0.31778,0.60457,1.11617,0.62785,1.558-0.13951     c0.07749,0.30231,0.24029,0.51932,0.55806,0.57358c0.34105,0.06202,0.52708-0.14728,0.67435-0.42631     c0.01551,0.06973,0.02327,0.13176,0.02327,0.19378c-0.00776,0.124,0.06198,0.20154,0.17826,0.21701     c0.124,0.01552,0.24804,0.01552,0.3798,0.01552c0.10077,0,0.13176-0.06202,0.13952-0.15503     c0.00776-0.17826,0.01551-0.35653,0.02327-0.53484c0.01547-0.5038,0.14727-0.98437,0.37204-1.44171     c0.02328-0.03875,0.05426-0.08525,0.10077-0.15503c0.01552,0.06978,0.02328,0.10077,0.02328,0.13176     c0.00771,0.18607,0.00771,0.37209,0.03099,0.55811c0.03099,0.34105,0.06973,0.68211,0.13176,1.02316     c0.0465,0.27127,0.24029,0.39532,0.49609,0.34881c0.09301-0.01552,0.13951-0.06202,0.14727-0.17055     c0.01552-0.62785,0.16279-1.24017,0.41855-1.81375c0.01552-0.02328,0.03103-0.04651,0.06202-0.0853v0.14727     c0.02327,0.47286,0.03099,0.93791,0.06978,1.40297c0.02323,0.26356,0.13176,0.48833,0.35652,0.64336     c0.27132,0.18602,0.5891,0.14727,0.76736-0.10077c0.16279-0.21701,0.21706-0.47281,0.23257-0.73637     C35.97555,36.41426,35.96784,36.38328,35.95232,36.36z M22.7055,36.59253c-0.0465,0.10853-0.10848,0.21706-0.19378,0.30231     c-0.1705,0.17826-0.39532,0.15503-0.49604-0.06973c-0.07754-0.17055-0.11629-0.36433-0.13956-0.55035     c-0.0465-0.33329-0.01547-0.66659,0.0853-0.99218c0.03099-0.11624,0.08525-0.23252,0.16275-0.33329     c0.17831-0.23253,0.47286-0.19378,0.61237,0.06202c0.10848,0.21701,0.11624,0.45734,0.11624,0.69762     C22.85278,36.01119,22.82955,36.3135,22.7055,36.59253z M25.71802,35.71344c0.01154,0.25242-0.0346,0.50113-0.1182,0.74014     c-0.01543,0.04413-0.03203,0.08786-0.04959,0.13119c-0.04651,0.11629-0.11629,0.23257-0.2093,0.32558     c-0.16279,0.16274-0.3798,0.13951-0.48057-0.07754c-0.07754-0.1705-0.12404-0.37204-0.14727-0.56582     c-0.03875-0.35657,0-0.70534,0.124-1.04639c0.0465-0.10853,0.10853-0.22482,0.19378-0.31007     c0.19378-0.19378,0.47286-0.13951,0.56587,0.11629c0.04227,0.12685,0.06728,0.25859,0.08903,0.39027     C25.70183,35.51434,25.71346,35.6137,25.71802,35.71344z M25.6122,39.03418c-0.01547,0.0465-0.03875,0.08525-0.06973,0.13176     c-0.10077,0.13176-0.29455,0.19378-0.44182,0.13951c-0.13952-0.06197-0.23253-0.21701-0.19378-0.39532     c0.02323-0.124,0.06973-0.25576,0.124-0.37204c0.17831-0.33329,0.44182-0.5891,0.72086-0.84485     C25.76724,38.15053,25.775,38.60011,25.6122,39.03418z M30.70231,35.81693c0.00047,0.0839-0.0042,0.16727-0.01447,0.24911     c-0.01493,0.11898-0.04308,0.23626-0.08471,0.34874c-0.02727,0.07368-0.05924,0.14525-0.09216,0.21654     c-0.0465,0.10072-0.10853,0.19378-0.18602,0.27127c-0.16279,0.1705-0.3798,0.14727-0.48057-0.06202     c-0.07749-0.16275-0.124-0.34105-0.13951-0.51156c-0.0465-0.34105-0.02328-0.68211,0.06202-1.0154     c0.03099-0.11629,0.08525-0.24029,0.16274-0.34882c0.18602-0.2558,0.51931-0.22477,0.62784,0.06973     C30.64764,35.2792,30.70082,35.55074,30.70231,35.81693z"/><path class="st2" d="M13.24306,33.18535c-0.06363,0.05355-0.10206,0.07826-0.13092,0.11132     c-0.41787,0.47868-0.58688,1.03452-0.48824,1.66176c0.02114,0.13443,0.10625,0.25818,0.15629,0.389     c0.01945,0.05087,0.02339,0.10766,0.03439,0.16176c-0.0585,0.0024-0.12265,0.02179-0.17458,0.00448     c-0.38986-0.1299-0.66984-0.58587-0.60013-1.01413c0.11465-0.70432,0.48641-1.24231,1.09984-1.61139     c0.13246-0.0797,0.27176-0.09625,0.41955-0.0607c0.27893,0.0671,0.34003,0.14066,0.3398,0.42497     c-0.00089,1.09703,0.00199,2.19411-0.00973,3.29103c-0.0025,0.23401-0.04018,0.47251-0.09768,0.69983     c-0.07359,0.2909-0.24133,0.52886-0.5209,0.66557c-0.04985,0.02438-0.11567,0.0161-0.17411,0.0229     c0.0016-0.05535-0.01039-0.11543,0.00697-0.16528c0.1239-0.35587,0.13544-0.72563,0.1378-1.09542     c0.00706-1.10533,0.0092-2.21069,0.01269-3.31604C13.25424,33.31112,13.24858,33.2672,13.24306,33.18535z"/></g></g></g></svg>